<svg width="180" height="74" viewBox="0 0 180 74" fill="none" xmlns="http://www.w3.org/2000/svg">
<path d="M13.4759 42.4744C14.7072 42.9816 15.8249 43.7284 16.7639 44.6712L14.1237 47.7842C13.5537 47.0812 12.8452 46.5025 12.042 46.0838C11.2983 45.6811 10.4673 45.4654 9.6212 45.4556C8.73569 45.4428 7.86366 45.6728 7.10015 46.1206C6.33665 46.5684 5.71097 47.2167 5.29131 47.9949C4.85496 48.804 4.63268 49.7108 4.64548 50.6296C4.6313 51.562 4.85346 52.4829 5.29131 53.3068C5.70721 54.0847 6.32613 54.7359 7.08257 55.1915C7.84794 55.6529 8.72706 55.8923 9.6212 55.8826C10.4342 55.8696 11.2347 55.6801 11.9669 55.3273C12.7773 54.9546 13.5113 54.4351 14.1318 53.7952L16.7883 56.594C15.8026 57.5957 14.6369 58.4035 13.352 58.9753C12.1158 59.5509 10.77 59.8543 9.40592 59.865C7.7284 59.8881 6.07353 59.4768 4.60283 58.6713C3.19409 57.897 2.02414 56.7533 1.21934 55.3638C0.399976 53.9412 -0.0209045 52.3249 0.000798869 50.6843C-0.0211728 49.064 0.412978 47.4701 1.25387 46.0838C2.08778 44.7155 3.27451 43.5956 4.69016 42.8412C6.18638 42.0357 7.86445 41.6261 9.56433 41.6515C10.9104 41.6603 12.2408 41.9401 13.4759 42.4744Z" fill="black"/>
<path d="M30.2122 47.7132C31.4132 49.013 32.0136 50.8208 32.0136 53.1365C32.0136 53.5074 32.0136 53.7871 31.9893 53.9675H22.312C22.4876 54.7064 22.8988 55.3685 23.4838 55.8543C24.0748 56.3103 24.8067 56.5461 25.5533 56.521C26.1576 56.5227 26.7559 56.4021 27.3121 56.1664C27.8828 55.9191 28.4012 55.5655 28.8393 55.1247L31.1586 57.4026C30.436 58.1799 29.5485 58.7865 28.5611 59.178C27.4806 59.6043 26.3272 59.8164 25.1654 59.8022C23.8277 59.8324 22.5028 59.5353 21.3067 58.9368C20.2368 58.3876 19.352 57.537 18.762 56.4906C18.1701 55.3519 17.8621 54.0875 17.8643 52.8047C17.8664 51.5219 18.1785 50.2585 18.7741 49.1218C19.3622 48.0689 20.2413 47.2071 21.3067 46.6391C22.4602 46.0362 23.7478 45.7343 25.0496 45.7616C27.2904 45.7656 29.0113 46.4162 30.2122 47.7132ZM27.0115 49.5879C26.7613 49.3338 26.4606 49.1349 26.1286 49.004C25.7966 48.873 25.4408 48.8131 25.0842 48.8279C24.7352 48.8198 24.3881 48.8819 24.0637 49.0103C23.7392 49.1388 23.4439 49.3311 23.1954 49.5757C22.6563 50.1268 22.3119 50.8383 22.2145 51.6024H27.7406C27.7578 51.2352 27.7022 50.8683 27.5771 50.5227C27.452 50.177 27.2598 49.8593 27.0115 49.5879Z" fill="black"/>
<path d="M47.0506 47.1559C47.9686 48.1125 48.4275 49.392 48.4275 50.9944V59.6583H44.0245V52.2144C44.0245 51.4186 43.8079 50.7856 43.3747 50.3155C43.1474 50.0781 42.8716 49.8925 42.566 49.7711C42.2604 49.6498 41.9322 49.5956 41.6037 49.6122C41.2472 49.6003 40.892 49.6623 40.5607 49.7941C40.2293 49.926 39.9289 50.1249 39.6784 50.3783C39.1544 50.9231 38.8401 51.6351 38.7909 52.3887V59.6583H34.3635V45.9156H38.7909V48.1551C39.7644 46.554 41.2937 45.7433 43.3787 45.7231C44.9073 45.719 46.1313 46.1966 47.0506 47.1559Z" fill="black"/>
<path d="M58.7426 59.6015C58.0988 59.7701 57.4361 59.8559 56.7706 59.8569C55.4085 59.8569 54.3071 59.4793 53.4663 58.724C52.6275 57.9681 52.2071 56.9 52.2071 55.4996V49.4379H50.2859V46.55H52.2071V42.7297H56.5959V46.5256H60.2028V49.4379H56.5959V54.8146C56.5959 55.8198 57.0021 56.3224 57.8145 56.3224C58.4266 56.2883 59.0255 56.1311 59.5752 55.8603L60.4465 58.9226C59.9109 59.2227 59.338 59.4509 58.7426 59.6015Z" fill="black"/>
<path d="M73.7915 47.7132C74.9925 49.013 75.593 50.8208 75.593 53.1365C75.593 53.5074 75.593 53.7871 75.5686 53.9675H65.8913C66.067 54.7064 66.4782 55.3685 67.0632 55.8543C67.6541 56.3103 68.3861 56.5461 69.1327 56.521C69.7369 56.5227 70.3352 56.4021 70.8914 56.1664C71.4659 55.917 71.9871 55.5599 72.4268 55.1145L74.738 57.3925C74.0163 58.1735 73.1288 58.7835 72.1404 59.178C71.06 59.6043 69.9065 59.8164 68.7448 59.8022C67.407 59.8324 66.0822 59.5353 64.886 58.9368C63.8165 58.387 62.9319 57.5366 62.3413 56.4906C61.7494 55.3519 61.4415 54.0875 61.4436 52.8047C61.4457 51.5219 61.7579 50.2585 62.3535 49.1218C62.9415 48.0689 63.8207 47.2071 64.886 46.6391C66.0395 46.0362 67.3271 45.7343 68.629 45.7616C70.8698 45.7656 72.5906 46.4162 73.7915 47.7132ZM70.599 49.5879C70.3488 49.3338 70.048 49.1349 69.7161 49.004C69.3841 48.873 69.0283 48.8131 68.6716 48.8279C68.3227 48.8198 67.9756 48.8819 67.6511 49.0103C67.3267 49.1388 67.0314 49.3311 66.7829 49.5757C66.2437 50.1268 65.8993 50.8383 65.802 51.6024H71.3281C71.3452 51.2352 71.2897 50.8683 71.1646 50.5227C71.0395 50.177 70.8473 49.8593 70.599 49.5879Z" fill="black"/>
<path d="M90.6318 47.1559C91.5498 48.1125 92.0088 49.392 92.0088 50.9944V59.6583H87.6058V52.2144C87.6058 51.4186 87.3891 50.7856 86.9559 50.3155C86.7287 50.0781 86.4529 49.8925 86.1473 49.7711C85.8417 49.6498 85.5134 49.5956 85.1849 49.6122C84.8284 49.6003 84.4733 49.6623 84.1419 49.7941C83.8106 49.926 83.5102 50.1249 83.2596 50.3783C82.7401 50.9253 82.4289 51.6366 82.3803 52.3887V59.6583H77.9529V45.9156H82.3803V48.1551C83.3537 46.554 84.883 45.7433 86.9681 45.7231C88.4913 45.719 89.7125 46.1966 90.6318 47.1559Z" fill="black"/>
<path d="M105.725 47.0303C106.773 47.9058 107.305 49.1218 107.322 50.6782V59.6522H103.008V58.0714C102.559 58.6595 101.96 59.1171 101.274 59.3968C100.485 59.7129 99.6412 59.8673 98.7918 59.8508C97.3458 59.8508 96.195 59.4529 95.3393 58.6571C94.4836 57.8613 94.0571 56.8237 94.0598 55.5442C94.0598 54.2323 94.5154 53.2156 95.4266 52.4941C96.3378 51.7726 97.645 51.4038 99.3483 51.3875H102.978V51.1849C102.993 50.886 102.941 50.5874 102.824 50.3115C102.708 50.0357 102.53 49.7897 102.305 49.5919C101.857 49.2109 101.188 49.0197 100.297 49.0184C99.6341 49.0306 98.9759 49.1294 98.3389 49.3123C97.5916 49.5184 96.8686 49.8038 96.1821 50.1635L94.9331 47.2633C95.9629 46.7757 97.0357 46.3842 98.1379 46.094C99.1787 45.8348 100.248 45.7054 101.32 45.7089C103.21 45.7143 104.679 46.1548 105.725 47.0303ZM101.993 56.3528C102.489 56.0432 102.845 55.5512 102.982 54.9828V53.7668H100.201C99.5351 53.7668 99.0362 53.8844 98.7045 54.1195C98.3714 54.3566 98.2069 54.7275 98.2069 55.2463C98.1956 55.4711 98.2355 55.6956 98.3238 55.9027C98.4122 56.1098 98.5465 56.2943 98.7167 56.442C99.0558 56.7318 99.529 56.8777 100.151 56.8777C100.803 56.892 101.444 56.7113 101.993 56.3589V56.3528Z" fill="black"/>
<path d="M116.729 46.3878C117.531 45.9462 118.433 45.7154 119.349 45.717V49.6872C119.146 49.668 118.943 49.6599 118.74 49.6629C117.657 49.6629 116.767 49.9263 116.071 50.4533C115.733 50.7075 115.453 51.0302 115.249 51.4C115.045 51.7699 114.922 52.1787 114.887 52.5995V59.6583H110.46V45.9156H114.887V48.2341C115.327 47.4673 115.963 46.8304 116.729 46.3878Z" fill="black"/>
<path d="M125.253 40.2957C125.589 40.6226 125.82 41.043 125.914 41.5022C126.009 41.9615 125.962 42.4385 125.782 42.8712C125.601 43.304 125.294 43.6727 124.901 43.9293C124.508 44.186 124.047 44.3188 123.577 44.3105C123.268 44.3216 122.959 44.2686 122.671 44.1549C122.383 44.0412 122.122 43.8692 121.904 43.6498C121.487 43.1903 121.256 42.5926 121.256 41.9728C121.256 41.3529 121.487 40.7552 121.904 40.2957C122.36 39.8763 122.958 39.6434 123.578 39.6434C124.198 39.6434 124.796 39.8763 125.253 40.2957ZM121.355 59.6583V45.9156H125.76V59.6583H121.355Z" fill="black"/>
<path d="M139.524 46.633C140.628 47.1746 141.546 48.0299 142.164 49.0914C142.775 50.2239 143.094 51.4898 143.094 52.7758C143.094 54.0618 142.775 55.3277 142.164 56.4602C141.543 57.5219 140.625 58.3803 139.524 58.9307C138.292 59.5086 136.947 59.8082 135.586 59.8082C134.225 59.8082 132.88 59.5086 131.648 58.9307C130.551 58.3733 129.636 57.5166 129.008 56.4602C128.386 55.3315 128.059 54.0641 128.059 52.7758C128.059 51.4875 128.386 50.2201 129.008 49.0914C129.632 48.0351 130.549 47.1814 131.648 46.633C132.882 46.063 134.226 45.7677 135.586 45.7677C136.946 45.7677 138.29 46.063 139.524 46.633ZM133.362 50.2486C132.793 50.912 132.509 51.7706 132.509 52.8244C132.509 53.8783 132.793 54.741 133.362 55.4125C133.643 55.722 133.985 55.9694 134.368 56.1387C134.75 56.308 135.164 56.3955 135.582 56.3955C136 56.3955 136.414 56.308 136.796 56.1387C137.178 55.9694 137.521 55.722 137.802 55.4125C138.373 54.7572 138.658 53.8945 138.657 52.8244C138.655 51.7544 138.37 50.8957 137.802 50.2486C137.523 49.9351 137.182 49.6841 136.799 49.5122C136.416 49.3403 136.002 49.2514 135.582 49.2514C135.162 49.2514 134.747 49.3403 134.365 49.5122C133.982 49.6841 133.64 49.9351 133.362 50.2486Z" fill="black"/>
<path d="M180 0V27.6252H166.159V13.8116H152.319V0H180Z" fill="#D42E12"/>
<path d="M152.319 27.6252V13.8116H143.09V36.8322H166.159V27.6252H152.319Z" fill="#D42E12"/>
<path d="M83.0646 64.51V73.5671H82.1425V66.3219L78.5763 72.418H78.1214L74.5551 66.3604V73.5671H73.6331V64.51H74.4251L78.3671 71.2284L82.2725 64.51H83.0646Z" fill="black"/>
<path d="M90.2521 67.3757C90.7293 67.8216 90.9669 68.4782 90.9669 69.3517V73.5671H90.0835V72.5052C89.8688 72.8665 89.5505 73.1552 89.1696 73.3341C88.7212 73.5427 88.2304 73.6447 87.7358 73.632C86.9749 73.632 86.3697 73.4503 85.9202 73.0868C85.7026 72.917 85.5282 72.6984 85.411 72.4487C85.2939 72.1991 85.2373 71.9254 85.2459 71.6499C85.2368 71.3846 85.2888 71.1208 85.398 70.8787C85.5071 70.6366 85.6705 70.4227 85.8755 70.2536C86.2938 69.8996 86.9613 69.7226 87.8779 69.7226H90.0449V69.3112C90.0449 68.7255 89.8804 68.2776 89.5534 67.9716C89.2265 67.6655 88.7411 67.5135 88.1115 67.5135C87.6873 67.5123 87.2661 67.5843 86.8666 67.7263C86.4934 67.8564 86.1487 68.0566 85.8511 68.3161L85.4348 67.6291C85.802 67.3247 86.2247 67.0942 86.6797 66.9501C87.174 66.7889 87.691 66.7082 88.211 66.711C89.0978 66.711 89.7782 66.9326 90.2521 67.3757ZM89.2143 72.5538C89.5936 72.3082 89.8846 71.9482 90.0449 71.5263V70.4116H87.9043C86.7373 70.4116 86.1537 70.817 86.1537 71.6276C86.1466 71.8093 86.1844 71.9898 86.2638 72.1535C86.3431 72.3171 86.4615 72.4588 86.6086 72.566C86.9829 72.8155 87.4287 72.9358 87.8779 72.9085C88.3484 72.9215 88.8125 72.7983 89.2143 72.5538Z" fill="black"/>
<path d="M94.515 73.1942C93.989 72.908 93.5546 72.4795 93.2619 71.958C92.9647 71.4081 92.8091 70.7932 92.8091 70.1684C92.8091 69.5437 92.9647 68.9288 93.2619 68.3789C93.5567 67.861 93.9907 67.4356 94.515 67.1508C95.0694 66.8511 95.692 66.6996 96.3225 66.711C96.868 66.701 97.4084 66.8183 97.9005 67.0535C98.3545 67.2758 98.7346 67.6241 98.9952 68.0567L98.3087 68.5228C98.0964 68.198 97.8003 67.9361 97.4517 67.7648C97.0997 67.5954 96.7132 67.5094 96.3225 67.5135C95.8587 67.5066 95.4011 67.6197 94.9943 67.8418C94.6031 68.0599 94.283 68.3856 94.0722 68.7802C93.8546 69.2111 93.7412 69.6869 93.7412 70.1694C93.7412 70.652 93.8546 71.1278 94.0722 71.5587C94.2844 71.9501 94.6043 72.2729 94.9943 72.4889C95.4006 72.7126 95.8585 72.8265 96.3225 72.8193C96.7126 72.8235 97.0986 72.7397 97.4517 72.5741C97.8013 72.407 98.0979 72.1468 98.3087 71.8222L98.9952 72.2883C98.7343 72.7235 98.3507 73.0724 97.8924 73.2915C97.4028 73.526 96.8654 73.6439 96.3225 73.636C95.6919 73.6468 95.0692 73.4946 94.515 73.1942Z" fill="black"/>
<path d="M102.647 67.0596C103.139 66.8122 103.686 66.6923 104.237 66.711V67.6027L104.016 67.5905C103.704 67.5732 103.391 67.6233 103.101 67.7373C102.81 67.8513 102.547 68.0266 102.33 68.2512C101.924 68.6903 101.721 69.3071 101.721 70.1015V73.5671H100.799V66.7576H101.68V68.0952C101.881 67.6544 102.22 67.2908 102.647 67.0596Z" fill="black"/>
<path d="M106.843 73.1881C106.325 72.8939 105.898 72.4644 105.608 71.9458C105.311 71.3971 105.155 70.7831 105.155 70.1593C105.155 69.5356 105.311 68.9216 105.608 68.3728C105.901 67.8566 106.332 67.4315 106.853 67.1447C107.401 66.8559 108.011 66.705 108.631 66.705C109.251 66.705 109.861 66.8559 110.409 67.1447C110.929 67.4306 111.358 67.8561 111.648 68.3728C111.941 68.9228 112.095 69.5363 112.095 70.1593C112.095 70.7824 111.941 71.3958 111.648 71.9458C111.357 72.464 110.928 72.8919 110.409 73.1821C109.863 73.476 109.252 73.6299 108.631 73.6299C108.01 73.6299 107.399 73.476 106.853 73.1821L106.843 73.1881ZM109.924 72.489C110.309 72.2705 110.623 71.9444 110.825 71.5506C111.039 71.12 111.15 70.6459 111.15 70.1654C111.15 69.6849 111.039 69.2108 110.825 68.7802C110.622 68.3873 110.308 68.0614 109.924 67.8419C109.523 67.6263 109.076 67.5135 108.621 67.5135C108.166 67.5135 107.718 67.6263 107.318 67.8419C106.932 68.0628 106.617 68.3881 106.408 68.7802C106.192 69.21 106.079 69.6844 106.079 70.1654C106.079 70.6464 106.192 71.1208 106.408 71.5506C106.615 71.9436 106.931 72.2692 107.318 72.489C107.718 72.7057 108.166 72.8193 108.621 72.8193C109.076 72.8193 109.524 72.7057 109.924 72.489Z" fill="black"/>
<path d="M113.965 63.9649H114.885V73.5671H113.965V63.9649Z" fill="black"/>
<path d="M118.466 73.1881C117.945 72.8971 117.515 72.4696 117.221 71.9519C116.923 71.4031 116.768 70.7892 116.768 70.1654C116.768 69.5416 116.923 68.9277 117.221 68.3789C117.514 67.8627 117.945 67.4376 118.466 67.1508C119.013 66.862 119.623 66.7111 120.243 66.7111C120.862 66.7111 121.472 66.862 122.02 67.1508C122.54 67.4362 122.969 67.8617 123.259 68.3789C123.553 68.9285 123.707 69.5421 123.707 70.1654C123.707 70.7887 123.553 71.4023 123.259 71.9519C122.968 72.4705 122.539 72.8985 122.02 73.1881C121.474 73.4821 120.863 73.6359 120.243 73.6359C119.622 73.6359 119.012 73.4821 118.466 73.1881ZM121.546 72.4889C121.932 72.2705 122.246 71.9444 122.448 71.5506C122.662 71.12 122.773 70.6459 122.773 70.1654C122.773 69.6849 122.662 69.2108 122.448 68.7802C122.244 68.3873 121.931 68.0614 121.546 67.8419C121.146 67.6263 120.698 67.5135 120.243 67.5135C119.787 67.5135 119.339 67.6263 118.939 67.8419C118.554 68.0635 118.239 68.3886 118.031 68.7802C117.813 69.2097 117.7 69.6842 117.7 70.1654C117.7 70.6466 117.813 71.1211 118.031 71.5506C118.238 71.943 118.553 72.2685 118.939 72.4889C119.339 72.7057 119.787 72.8192 120.243 72.8192C120.698 72.8192 121.146 72.7057 121.546 72.4889Z" fill="black"/>
<path d="M129.181 73.1618C128.995 73.3252 128.776 73.4468 128.539 73.5185C128.281 73.6005 128.012 73.6422 127.741 73.6421C127.102 73.6421 126.609 73.4691 126.262 73.1233C125.916 72.7774 125.743 72.2896 125.744 71.66V67.5379H124.526V66.7617H125.744V65.2741H126.664V66.7617H128.74V67.5379H126.664V71.6033C126.641 71.9399 126.75 72.2723 126.969 72.5295C127.085 72.6396 127.223 72.7246 127.373 72.779C127.524 72.8334 127.684 72.8561 127.844 72.8456C128.032 72.846 128.219 72.8152 128.397 72.7544C128.565 72.6999 128.721 72.6124 128.856 72.497L129.181 73.1618Z" fill="black"/>
<path d="M136.549 70.4502H130.842C130.855 70.776 130.934 71.0959 131.073 71.3908C131.213 71.6857 131.41 71.9496 131.654 72.1667C132.172 72.6113 132.84 72.8444 133.523 72.8193C133.923 72.8236 134.32 72.7471 134.69 72.5944C135.043 72.4428 135.357 72.2151 135.61 71.9276L136.13 72.5214C135.825 72.8856 135.435 73.1701 134.995 73.3503C134.52 73.5448 134.01 73.642 133.496 73.6361C132.847 73.6482 132.206 73.494 131.634 73.1882C131.11 72.8981 130.677 72.4678 130.385 71.9458C130.077 71.4016 129.92 70.7853 129.93 70.1604C129.919 69.5373 130.069 68.9219 130.365 68.3728C130.641 67.8611 131.055 67.436 131.559 67.1447C132.077 66.8478 132.667 66.6958 133.265 66.7049C133.86 66.6956 134.447 66.8476 134.963 67.1447C135.461 67.4337 135.87 67.8545 136.145 68.3607C136.436 68.9131 136.583 69.5301 136.571 70.1543L136.549 70.4502ZM131.603 68.1276C131.152 68.558 130.881 69.1432 130.846 69.7652H135.684C135.647 69.143 135.376 68.5578 134.924 68.1276C134.466 67.7229 133.875 67.4994 133.264 67.4994C132.652 67.4994 132.061 67.7229 131.603 68.1276Z" fill="black"/>
<path d="M138.683 73.3969C138.251 73.2733 137.848 73.0668 137.495 72.7889L137.901 72.0634C138.225 72.3082 138.589 72.4941 138.978 72.6126C139.413 72.7566 139.868 72.8291 140.326 72.8274C140.95 72.8274 141.409 72.7301 141.707 72.5356C141.849 72.4505 141.965 72.3294 142.043 72.1848C142.122 72.0402 142.161 71.8773 142.156 71.7127C142.162 71.6025 142.142 71.4925 142.099 71.3908C142.056 71.2891 141.991 71.1983 141.908 71.125C141.727 70.9731 141.515 70.8624 141.287 70.8008C140.958 70.7111 140.625 70.6401 140.288 70.588C139.836 70.5087 139.39 70.4025 138.951 70.2698C138.62 70.1657 138.323 69.9763 138.088 69.7206C137.837 69.4208 137.71 69.0366 137.733 68.6464C137.729 68.3732 137.792 68.1031 137.916 67.8595C138.041 67.6159 138.222 67.406 138.446 67.2481C138.921 66.8846 139.582 66.7036 140.43 66.7049C140.878 66.7048 141.325 66.7634 141.758 66.8792C142.144 66.9714 142.512 67.1268 142.847 67.3393L142.44 68.077C141.847 67.6786 141.145 67.4746 140.43 67.4933C139.841 67.4933 139.398 67.5966 139.1 67.8034C138.962 67.8896 138.849 68.0093 138.771 68.1511C138.693 68.2929 138.652 68.4522 138.653 68.614C138.648 68.7295 138.669 68.8445 138.713 68.9515C138.756 69.0584 138.823 69.1548 138.907 69.2342C139.086 69.3965 139.301 69.5145 139.534 69.5787C139.876 69.6716 140.222 69.7466 140.572 69.8037C141.014 69.8835 141.451 69.9877 141.882 70.1158C142.206 70.2152 142.497 70.3984 142.727 70.6467C142.974 70.9335 143.099 71.305 143.076 71.6824C143.083 71.9626 143.019 72.24 142.888 72.4883C142.758 72.7366 142.566 72.9475 142.331 73.101C141.833 73.4496 141.143 73.6246 140.261 73.6259C139.727 73.6297 139.195 73.5525 138.683 73.3969Z" fill="black"/>
</svg>
