<svg xmlns="http://www.w3.org/2000/svg" width="30" height="30" viewBox="0 0 30 30">
    <g fill="none" fill-rule="evenodd">
        <g fill="#000" fill-rule="nonzero">
            <g>
                <path d="M25.6 4.395C22.767 1.562 19.002 0 14.997 0S7.227 1.562 4.394 4.395C1.561 7.228 0 10.994 0 15s1.561 7.772 4.394 10.605S10.992 30 14.997 30c2.327 0 4.45-.432 6.134-1.24 1.599-.772 2.76-1.877 3.271-3.106.611-1.475.266-3.012-.944-4.222l-.043-.043c.018-.025.043-.043.062-.062.864-.907.864-2.099-.013-2.975l-2.135-2.136c-.42-.432-.926-.667-1.463-.667s-1.049.229-1.48.66l-1.112 1.112c-.055-.03-.105-.056-.16-.08-.136-.068-.26-.13-.364-.198-1.13-.716-2.154-1.654-3.136-2.858-.432-.543-.728-1.006-.95-1.463.278-.259.537-.524.79-.784.105-.11.216-.216.327-.327.907-.907.907-2.08 0-2.988l-1.055-1.055c-.124-.124-.24-.24-.358-.364-.235-.241-.475-.488-.735-.729-.42-.413-.92-.63-1.45-.63-.53 0-1.037.217-1.469.63l-.012.013-1.327 1.327c-.53.53-.84 1.185-.901 1.938-.093 1.173.247 2.26.512 2.97.636 1.715 1.586 3.308 3 5.012 1.715 2.049 3.783 3.672 6.146 4.814.908.432 2.124.939 3.494 1.031.086.006.172.006.259.006.956 0 1.765-.345 2.394-1.03l.025-.025c.019-.025.043-.05.068-.074l.037.037c.79.79 1.006 1.691.623 2.61-.71 1.686-3.468 3.415-8.035 3.415C7.542 28.519 1.48 22.457 1.48 15S7.541 1.481 14.997 1.481c7.455 0 13.516 6.062 13.516 13.519 0 1.228-.167 2.438-.488 3.605-.111.395.124.802.519.914.394.11.802-.124.913-.519.358-1.296.543-2.642.543-4-.006-4.006-1.568-7.772-4.4-10.605zM21.18 21.55c-.351.377-.746.544-1.295.544-.056 0-.111 0-.167-.007-1.11-.074-2.16-.512-2.944-.888-2.166-1.05-4.067-2.538-5.647-4.426-1.302-1.568-2.172-3.019-2.752-4.574-.346-.939-.475-1.655-.426-2.334.037-.401.185-.728.475-1.012L9.751 7.53c.105-.099.265-.216.438-.216s.321.11.414.21l.018.018c.235.216.457.445.691.685.124.124.247.253.37.377l1.056 1.055c.327.328.327.568 0 .896l-.333.333c-.327.327-.63.642-.963.938-.012.006-.018.019-.03.031-.464.463-.303.944-.254 1.105.006.018.013.03.019.05.284.685.679 1.327 1.283 2.092l.007.006c1.086 1.34 2.228 2.377 3.493 3.18.166.104.333.19.493.27.136.069.26.13.365.198.018.013.043.025.067.037.16.08.321.118.482.118.271 0 .524-.112.74-.334l1.327-1.327c.105-.105.26-.228.432-.228.16 0 .309.117.401.216l.013.012 2.135 2.136c.303.302.303.58-.012.907l-.006.006c-.142.155-.297.303-.463.463-.247.241-.506.494-.753.784z" transform="translate(-1203.000000, -27.000000) translate(1203.000000, 27.000000)"/>
            </g>
        </g>
    </g>
</svg>
