<svg width="22" height="25" viewBox="0 0 22 25" fill="none" xmlns="http://www.w3.org/2000/svg">
<path d="M16.0195 0.358521H13.425V19.9481H16.0195V0.358521Z" fill="black"/>
<path d="M12.4003 4.90863H9.80591V19.9481H12.4003V4.90863Z" fill="black"/>
<path d="M8.78069 10.1706H6.18628V19.9481H8.78069V10.1706Z" fill="black"/>
<path d="M21.0457 17.9735C20.711 17.6463 20.3403 17.3597 19.941 17.1193C19.051 16.5611 18.0678 16.2192 17.0586 15.9626V17.9365C17.3805 18.0306 17.7017 18.1295 18.0189 18.2405C18.6667 18.4673 19.2869 18.777 19.7745 19.2934C20.1478 19.6883 20.1612 20.0422 19.7745 20.4194C19.5218 20.6654 19.2401 20.8783 18.9358 21.0533C18.097 21.5359 17.1825 21.8254 16.253 22.0506C13.9789 22.6 11.6709 22.7432 9.34639 22.5944C7.48027 22.4753 5.63783 22.1874 3.88613 21.4916C3.23674 21.2342 2.59839 20.9455 2.1076 20.4162C1.74779 20.0285 1.72807 19.6746 2.1076 19.3151C2.42343 19.0184 2.77533 18.7643 3.15468 18.559C3.783 18.2338 4.44453 17.9799 5.12731 17.8021V15.8822C4.33791 16.0687 3.56694 16.3285 2.82406 16.6584C1.97189 17.0445 1.16705 17.507 0.575259 18.2759C-0.19328 19.2789 -0.201171 20.4999 0.608399 21.4707C0.93519 21.8607 1.31706 22.199 1.74148 22.4745C3.34011 23.5057 5.14625 23.9223 6.98711 24.2119C9.14247 24.5429 11.3296 24.6023 13.4992 24.3888C15.2296 24.228 16.9324 23.9183 18.5641 23.2829C19.4826 22.9249 20.3545 22.4785 21.0544 21.7546C22.1614 20.5972 22.1709 19.1068 21.0457 17.9735Z" fill="black"/>
</svg>
