<svg xmlns="http://www.w3.org/2000/svg" width="37" height="28" viewBox="0 0 37 28">
    <g fill="none" fill-rule="evenodd">
        <g fill="#000" fill-rule="nonzero">
            <g>
                <g>
                    <path d="M29.292 10.928V3.111C29.292 1.395 27.909 0 26.208 0H3.083C1.383 0 0 1.395 0 3.111v15.556c0 1.715 1.383 3.11 3.083 3.11H20.37C21.38 25.364 24.648 28 28.52 28c1.491 0 2.957-.396 4.241-1.145.368-.215.495-.69.28-1.063-.212-.372-.684-.5-1.052-.283-1.05.612-2.249.935-3.468.935-3.826 0-6.938-3.14-6.938-7s3.112-7 6.938-7c3.825 0 6.937 3.14 6.937 7v.778c0 .858-.692 1.556-1.541 1.556-.85 0-1.542-.698-1.542-1.556v-3.11c0-.43-.345-.779-.77-.779-.208 0-.394.085-.533.22-.681-.613-1.57-.997-2.551-.997-2.125 0-3.854 1.744-3.854 3.888 0 2.145 1.729 3.89 3.854 3.89 1.149 0 2.17-.52 2.877-1.328.558.8 1.477 1.327 2.519 1.327 1.7 0 3.083-1.395 3.083-3.11v-.779c0-4.455-3.393-8.12-7.708-8.516zM3.083 1.556h23.125c.032 0 .06.016.091.018l-11.02 9.127c-.391.249-.96.197-1.215.039L2.994 1.574c.031-.002.058-.018.09-.018zm24.667 9.372c-4.315.395-7.708 4.061-7.708 8.516 0 .263.016.522.039.778H3.083c-.85 0-1.541-.698-1.541-1.555V3.11c0-.22.048-.428.13-.618l11.482 9.5c.449.296.964.452 1.492.452.507 0 1.003-.145 1.44-.418.044-.024.085-.052.124-.084l11.41-9.45c.082.19.13.398.13.618v7.817zm.77 10.85c-1.274 0-2.312-1.047-2.312-2.334 0-1.286 1.038-2.333 2.313-2.333 1.275 0 2.312 1.047 2.312 2.333 0 1.287-1.037 2.334-2.312 2.334z" transform="translate(-147.000000, -368.000000) translate(147.000000, 321.000000) translate(0.000000, 47.000000)"/>
                </g>
            </g>
        </g>
    </g>
</svg>
