<svg width="26" height="24" viewBox="0 0 26 24" fill="none" xmlns="http://www.w3.org/2000/svg">
<path d="M7.415 19.5658L4 20C4.1649 18.9668 4.32454 17.9658 4.49295 16.9084L5.44202 17.7621L11.4978 12.3116L10.5891 11.4937L10.6084 11.4353L14 11C13.8374 12.0432 13.6801 13.0495 13.5146 14.1084L12.5521 13.2405L6.50453 18.6837L7.43196 19.5189L7.415 19.5658Z" fill="black"/>
<path d="M25.9958 23.3962H0V0H25.9958V23.3962ZM2.21484 21.4029H23.781V1.99336H2.21484V21.4029Z" fill="black"/>
<path d="M18 23H0V7H18V23ZM1.5336 21.6368H16.4664V8.3632H1.5336V21.6368Z" fill="black"/>
</svg>
