<svg xmlns="http://www.w3.org/2000/svg" xmlns:xlink="http://www.w3.org/1999/xlink" width="26" height="26" viewBox="0 0 26 26">
    <defs>
        <filter id="d98pushbqa" width="161.1%" height="161.1%" x="-30.6%" y="-19.4%" filterUnits="objectBoundingBox">
            <feOffset dy="2" in="SourceAlpha" result="shadowOffsetOuter1"/>
            <feGaussianBlur in="shadowOffsetOuter1" result="shadowBlurOuter1" stdDeviation="1.5"/>
            <feColorMatrix in="shadowBlurOuter1" values="0 0 0 0 0 0 0 0 0 0 0 0 0 0 0 0 0 0 0.02 0"/>
        </filter>
        <circle id="784sitsqtb" cx="9.309" cy="9.309" r="9"/>
    </defs>
    <g fill="none" fill-rule="evenodd">
        <g>
            <g>
                <g>
                    <g>
                        <g>
                            <g transform="translate(-1193.000000, -349.000000) translate(827.000000, 150.000000) translate(1.000000, 65.000000) translate(205.000000, 124.000000) translate(175.293562, 22.864443) rotate(89.000000) translate(-175.293562, -22.864443) translate(165.984949, 13.555830) translate(0.000000, -0.000000) translate(9.308613, 9.308613) rotate(-2.000000) translate(-9.308613, -9.308613)">
                                <use fill="#000" filter="url(#d98pushbqa)" xlink:href="#784sitsqtb"/>
                                <use fill="#1F2429" xlink:href="#784sitsqtb"/>
                            </g>
                            <path fill="#FFF" d="M9.634 9.097L12.017 6.647 11.421 6.035 8.017 9.535 11.421 13.035 12.017 12.422 9.232 9.535z" transform="translate(-1193.000000, -349.000000) translate(827.000000, 150.000000) translate(1.000000, 65.000000) translate(205.000000, 124.000000) translate(175.293562, 22.864443) rotate(89.000000) translate(-175.293562, -22.864443) translate(165.984949, 13.555830) translate(0.000000, -0.000000) translate(10.016993, 9.534598) scale(-1, 1) translate(-10.016993, -9.534598)"/>
                        </g>
                    </g>
                </g>
            </g>
        </g>
    </g>
</svg>
