<svg width="23" height="25" viewBox="0 0 23 25" fill="none" xmlns="http://www.w3.org/2000/svg">
<path d="M11.1059 14.2191L3.97583 7.10916L11.1059 0L18.2351 7.10916L11.1059 14.2191ZM6.74623 7.10916L11.1059 11.4565L15.4647 7.10916L11.1059 2.76259L6.74623 7.10916Z" fill="black"/>
<path d="M12.2172 11.2766H10.1765V19.2966H12.2172V11.2766Z" fill="black"/>
<path d="M16.0331 15.8861C16.5808 16.009 17.0885 16.1116 17.5905 16.2369C18.6516 16.5031 19.6924 16.8507 20.6327 17.4245C21.0456 17.668 21.429 17.9581 21.7755 18.2889C22.9362 19.4374 22.9297 20.9465 21.7828 22.1105C21.0588 22.8431 20.1568 23.2981 19.2067 23.657C17.5187 24.3001 15.7572 24.6102 13.9671 24.7762C11.7227 24.9923 9.46017 24.9321 7.23049 24.5971C5.32615 24.3066 3.45773 23.8825 1.80398 22.839C1.36428 22.5614 0.968421 22.2201 0.629378 21.8264C-0.208108 20.8448 -0.199945 19.6084 0.595095 18.5934C1.20403 17.8152 2.03988 17.3472 2.92144 16.9565C4.04054 16.4591 5.22086 16.1612 6.42076 15.9325C6.48434 15.9278 6.54819 15.9278 6.61177 15.9325C6.61177 16.5202 6.62075 17.0989 6.60034 17.6776C6.60034 17.7436 6.43709 17.8404 6.34158 17.8624C5.28044 18.1066 4.23318 18.3768 3.26836 18.8839C2.87325 19.0914 2.50647 19.3485 2.17701 19.6491C1.78112 20.0129 1.80153 20.371 2.17701 20.7634C2.68473 21.299 3.34508 21.5912 4.01687 21.8516C5.83224 22.5557 7.73495 22.8471 9.66541 22.9676C12.0701 23.1182 14.4577 22.9733 16.8102 22.4174C17.7758 22.1894 18.7218 21.8972 19.5854 21.4089C19.9028 21.2307 20.1968 21.0139 20.4605 20.7634C20.8572 20.3816 20.8433 20.0227 20.4605 19.6238C19.956 19.1013 19.3177 18.7879 18.6443 18.5584C17.868 18.2922 17.0681 18.096 16.2812 17.86C16.1898 17.8331 16.0486 17.7468 16.0461 17.6842C16.0257 17.103 16.0331 16.5234 16.0331 15.8861Z" fill="black"/>
</svg>
