<svg width="18" height="26" viewBox="0 0 18 26" fill="none" xmlns="http://www.w3.org/2000/svg">
<path d="M8.67758 25.6621C8.42468 25.2623 8.18048 24.8788 7.93864 24.4929C7.52293 23.832 7.10854 23.1708 6.69547 22.5094C6.22128 21.7456 5.74709 20.9805 5.2729 20.214C4.98576 19.7492 4.69914 19.2847 4.41304 18.8204C4.08901 18.2931 3.76419 17.7641 3.44569 17.236C2.95728 16.4153 2.46254 15.6027 1.98677 14.7772C1.54815 14.0142 1.11505 13.2463 0.712783 12.463C0.452769 11.9544 0.32948 11.388 0.20382 10.8274C-0.19448 8.97611 -0.00587361 7.04239 0.742025 5.30932C1.24151 4.14859 1.9766 3.11106 2.89801 2.26631C4.27027 1.00123 6.001 0.222022 7.8359 0.0431705C9.94409 -0.170866 12.0556 0.415956 13.7717 1.69287C15.4879 2.96978 16.6901 4.84844 17.1514 6.97424C17.3565 7.91416 17.4099 8.88237 17.3094 9.84011C17.209 10.8152 16.9878 11.7675 16.561 12.6507C16.2946 13.2 15.9817 13.7274 15.6742 14.2547C15.1574 15.1412 14.631 16.022 14.1023 16.9012C13.5443 17.8302 12.9822 18.7562 12.4158 19.6793C11.8705 20.5682 11.3164 21.4523 10.764 22.3363C10.1091 23.3862 9.45236 24.4352 8.79376 25.4834C8.76294 25.5378 8.725 25.5914 8.67758 25.6621ZM8.67758 22.3307C8.70208 22.2949 8.71868 22.273 8.73291 22.2494C8.91547 21.9577 9.09882 21.6652 9.27981 21.3727C9.72238 20.66 10.1665 19.9474 10.6052 19.2324C11.2279 18.22 11.8547 17.2091 12.4656 16.1886C13.1729 15.0079 13.8676 13.8192 14.5623 12.6304C14.7475 12.3284 14.9136 12.0143 15.0594 11.6903C15.3286 11.0441 15.4984 10.3588 15.5628 9.65891C15.6936 8.37545 15.4821 7.07958 14.951 5.91033C14.4198 4.74109 13.589 3.7426 12.5478 3.02198C11.4966 2.28313 10.2638 1.86458 8.99134 1.81453C7.35813 1.73976 5.75189 2.26168 4.45711 3.28786C3.16233 4.31404 2.26258 5.77825 1.91722 7.42114C1.75325 8.1894 1.7177 8.98076 1.81211 9.76129C1.9275 10.712 2.1883 11.6115 2.68146 12.4362C3.25523 13.404 3.80924 14.3863 4.38459 15.3492C4.99945 16.3811 5.62618 17.4058 6.25527 18.428C6.91992 19.5103 7.59327 20.5869 8.26346 21.666C8.39544 21.8837 8.53691 22.1031 8.67758 22.3323V22.3307Z" fill="black"/>
<path d="M4.36426 8.91413C4.36516 8.02636 4.62514 7.15929 5.11057 6.42509C5.596 5.69089 6.28454 5.12334 7.08712 4.79585C7.8897 4.46837 8.76939 4.39603 9.6124 4.58818C10.4554 4.78033 11.2229 5.22814 11.8157 5.87368C12.4085 6.51921 12.7992 7.33276 12.9374 8.2091C13.0755 9.08544 12.9547 9.98423 12.5906 10.7892C12.2265 11.5942 11.6358 12.2683 10.895 12.7244C10.1542 13.1805 9.29728 13.3975 8.43517 13.3474C7.33419 13.2831 6.29894 12.7878 5.5419 11.9634C4.78487 11.139 4.36349 10.0479 4.36426 8.91413ZM11.2353 8.92307C11.2351 8.57542 11.1679 8.23126 11.0375 7.91048C10.9072 7.58969 10.7164 7.29864 10.476 7.05415C10.2356 6.80965 9.95048 6.61656 9.63709 6.48602C9.3237 6.35549 8.98825 6.2901 8.65014 6.29365C7.27341 6.29609 6.12587 7.48972 6.12745 8.92551C6.13923 9.6139 6.41348 10.27 6.89115 10.7526C7.36882 11.2351 8.0117 11.5055 8.68136 11.5055C9.35102 11.5055 9.9939 11.2351 10.4716 10.7526C10.9492 10.27 11.2235 9.6139 11.2353 8.92551V8.92307Z" fill="black"/>
</svg>
