<svg xmlns="http://www.w3.org/2000/svg" width="68" height="68" viewBox="0 0 68 68">
    <g fill="none" fill-rule="evenodd">
        <g>
            <g>
                <g>
                    <g transform="translate(-536.000000, -2075.000000) translate(120.000000, 1822.000000) translate(300.000000, 220.000000) translate(117.000000, 34.000000)">
                        <circle cx="33" cy="33" r="33" stroke="#EEE" stroke-width="2"/>
                        <g fill="#EEE" fill-rule="nonzero">
                            <path d="M14 4.808c-3.455 0-6.256 2.824-6.256 6.307 0 3.484 2.8 6.308 6.256 6.308 3.446-.02 6.235-2.833 6.256-6.308 0-3.483-2.8-6.307-6.256-6.307zm0 11.077c-2.612 0-4.73-2.136-4.73-4.77 0-2.634 2.118-4.769 4.73-4.769 2.604.021 4.71 2.144 4.73 4.77 0 2.633-2.118 4.769-4.73 4.769z" transform="translate(19.000000, 18.000000)"/>
                            <path d="M27.237 28.462H14.65l7.553-7.962c4.542-4.739 4.592-12.238.114-17.038-2.1-2.217-5.009-3.468-8.049-3.462-3.118-.002-6.098 1.292-8.24 3.577-4.542 4.739-4.592 12.238-.114 17.038l7.439 7.847H.762c-.42 0-.762.344-.762.769 0 .425.342.769.763.769h26.474c.421 0 .763-.344.763-.77 0-.424-.342-.768-.763-.768zM6.981 19.577C3.09 15.5 3.166 8.807 7.095 4.654c1.87-1.98 4.46-3.105 7.172-3.116 2.638-.011 5.163 1.074 6.98 3 3.892 4.116 3.816 10.808-.113 14.924L14 26.962l-7.019-7.385z" transform="translate(19.000000, 18.000000)"/>
                        </g>
                    </g>
                </g>
            </g>
        </g>
    </g>
</svg>
