<svg xmlns="http://www.w3.org/2000/svg" width="68" height="68" viewBox="0 0 68 68">
    <g fill="none" fill-rule="evenodd">
        <g>
            <g>
                <g>
                    <g transform="translate(-1136.000000, -2075.000000) translate(120.000000, 1822.000000) translate(900.000000, 220.000000) translate(117.000000, 34.000000)">
                        <circle cx="33" cy="33" r="33" stroke="#EEE" stroke-width="2"/>
                        <g fill="#EEE" fill-rule="nonzero">
                            <path d="M7.802 20.433h2.426c.362 0 .656-.298.656-.666V9.7c0-.368-.294-.667-.656-.667H7.802c-.362 0-.655.299-.655.667v10.067c0 .368.293.666.655.666zm.656-10.066h1.114V19.1H8.458v-8.733zM12.097 20.433h2.426c.362 0 .655-.298.655-.666V12.9c0-.368-.293-.667-.655-.667h-2.426c-.362 0-.656.299-.656.667v6.867c0 .368.294.666.656.666zm.655-6.866h1.115V19.1h-1.115v-5.533zM3.508 20.433h2.426c.362 0 .655-.298.655-.666V15.2c0-.368-.293-.667-.655-.667H3.508c-.362 0-.656.299-.656.667v4.567c0 .368.294.666.656.666zm.655-4.566h1.115V19.1H4.163v-3.233z" transform="translate(24.000000, 18.000000)"/>
                            <path d="M17.998 27.333V2.667C17.998 1.194 16.823 0 15.375 0H2.623C1.174 0 0 1.194 0 2.667v24.666C0 28.806 1.174 30 2.623 30h12.785c.704.006 1.38-.283 1.868-.8.49-.49.752-1.169.722-1.867zm-15.375-26H15.44c.706.019 1.264.616 1.245 1.334v1.9H1.311v-1.9c0-.737.587-1.334 1.312-1.334zM16.686 5.9v17.3H1.311V5.9h15.375zm-.327 22.366c-.25.26-.594.404-.951.4H2.623c-.725 0-1.312-.596-1.312-1.333v-2.8h15.375v2.833c.028.335-.093.665-.327.9z" transform="translate(24.000000, 18.000000)"/>
                            <path d="M10.49 25.9H7.54c-.362 0-.656.298-.656.666 0 .369.294.667.656.667h2.95c.363 0 .656-.298.656-.667 0-.368-.293-.666-.656-.666z" transform="translate(24.000000, 18.000000)"/>
                        </g>
                    </g>
                </g>
            </g>
        </g>
    </g>
</svg>
