<svg xmlns="http://www.w3.org/2000/svg" width="68" height="68" viewBox="0 0 68 68">
    <g fill="none" fill-rule="evenodd">
        <g>
            <g>
                <g transform="translate(-236.000000, -1855.000000) translate(120.000000, 1822.000000) translate(117.000000, 34.000000)">
                    <circle cx="33" cy="33" r="33" stroke="#000" stroke-width="2"/>
                    <g fill="#000" fill-rule="nonzero">
                        <path d="M11.61 4.341c.288-.257.724-.257 1.012 0l13.086 13.061c.248.305.248.742 0 1.047-.145.112-.322.175-.506.18-.195 0-.386-.063-.542-.18l-.796-.794-4.23 2.706 1.664 1.66c.145.142.224.338.217.54-.003.191-.08.373-.217.506l-5.567 5.556c-.014.015-.027.029-.042.042-.28.256-.714.237-.97-.042l-3.073-3.067-2.205 1.408-2.856 2.814-.042.042c-.28.256-.714.237-.97-.042l-5.35-5.34-.042-.042c-.257-.279-.238-.712.042-.968l2.82-2.814L12.404 6.18l-.795-.793c-.28-.293-.28-.754 0-1.047zM3.62 22.057l-1.88 1.876 4.339 4.33 1.88-1.877-4.338-4.33zm14.786-.866l-5.531 3.536 2.35 2.345 4.555-4.51-1.374-1.371zM13.453 7.228l-8.892 13.71 4.518 4.51 13.737-8.84-9.363-9.38zM28.04 8.232c.376-.133.79.063.923.439.124.378-.065.788-.434.938l-4.844 1.768-.253.072c-.315-.001-.593-.205-.687-.505l-.015-.042c-.114-.361.087-.746.449-.86l4.844-1.804.017-.006zM24.52 3.614c.28-.256.714-.237.97.042.28.293.28.753 0 1.046L21.406 8.78c-.133.136-.315.214-.506.217-.203.007-.4-.072-.542-.217-.248-.305-.248-.741 0-1.046l4.121-4.077.042-.042zM19.424.464c.143-.372.561-.559.934-.416.369.15.558.56.434.938l-1.808 4.835c-.115.279-.384.463-.686.469h-.254c-.368-.15-.546-.57-.397-.938L19.418.48l.006-.017z" transform="translate(19.000000, 18.000000)"/>
                    </g>
                </g>
            </g>
        </g>
    </g>
</svg>
