<?xml version="1.0" encoding="utf-8"?>
<!-- Generator: Adobe Illustrator 24.3.0, SVG Export Plug-In . SVG Version: 6.00 Build 0)  -->
<svg version="1.1" id="Capa_1" xmlns="http://www.w3.org/2000/svg" xmlns:xlink="http://www.w3.org/1999/xlink" x="0px" y="0px"
	 viewBox="0 0 68 68" style="enable-background:new 0 0 68 68;" xml:space="preserve">
<style type="text/css">
	.st0{fill:#FFFFFF;}
	.st1{fill:none;stroke:#FFFFFF;stroke-width:2;}
</style>
<g>
	<g id="XMLID_3876_">
		<path id="XMLID_4816_" class="st0" d="M48,41.2l-2.2-3l-1.7-1.4V35h-2.5l-1.3,0.9L39,34.2l-1.7-3.5l1.2-1.5l0.8-2.9l3-1.6l2.1,0.6
			l1.6-1l-0.5-4.5l-2.9-1.4l-3,0.7l-1.4-0.9l-1.1-1.9l-2.8-2.8l-2.8,0.9l0.7,2l-1.1,1.5L27,20.2L25.1,22l-0.9,2.1l-0.4,0.5l0,0
			l-0.6-0.9l-1.4-0.4L21.7,23l1-1.7h-4.1l-0.7,3l1.4,3.3l2.9,2.8l3.6,6.4l1.2-0.7l-3.7-6.6L20.6,27l-1.1-2.6l0.3-1.5h0.6l-0.1,0.2
			l0.7,1.5l1.5,0.4l0.7,1.1h1.4l1-1.1l0.8-2l1.5-1.5l4.2-2.4l1.7-2.3l-0.4-1.3l0.7-0.2l2.1,2.1l1.2,2l2.2,1.3l3-0.7l1.8,0.8l0.3,2.9
			L44.2,24l-2-0.6l-4,2.1l-0.9,3.2l-1.6,2l2.1,4.4l2.1,2.9l2.1-1.4h0.7v1l2.1,1.7l1.9,2.5v1.3L46.1,46l0.5,2.8v1.5l-1.1,1.5
			l-1.2,3.1h-0.7l-0.8-0.5l-3.3-2.5L35,49.5l-3.7-3.6l0.2-1.4l-2.1-3.9L27,36.3L25.8,37l2.4,4.3l1.9,3.4l-0.2,1.7l4.4,4.2l4.6,2.4
			l3.2,2.5l1.2,0.7h2l1.5-3.8l1.3-1.7v-2.1L47.5,46l0.5-2.9V41.2z"/>
	</g>
</g>
<circle class="st1" cx="34" cy="34" r="33"/>
</svg>
