<svg width="22" height="24" viewBox="0 0 22 24" fill="none" xmlns="http://www.w3.org/2000/svg">
<path d="M21.0939 16.8032C20.7585 16.4804 20.387 16.1976 19.9869 15.9605C19.076 15.4011 18.0679 15.0623 17.04 14.8029C16.5537 14.6807 16.0619 14.5807 15.5313 14.4609C15.5313 15.0822 15.5242 15.6471 15.544 16.2137C15.544 16.2748 15.6831 16.3589 15.7717 16.3851C16.5339 16.6152 17.3088 16.8064 18.0608 17.0659C18.7131 17.2896 19.3314 17.5951 19.8201 18.1045C20.1909 18.4933 20.2043 18.8432 19.8201 19.2154C19.5647 19.4596 19.2799 19.671 18.9724 19.8446C18.1359 20.3207 17.2194 20.6055 16.2841 20.8277C14.0053 21.3697 11.6925 21.5109 9.36309 21.3641C7.49309 21.2467 5.64681 20.9626 3.89146 20.2762C3.2423 20.0223 2.60105 19.7375 2.10923 19.2193C1.74551 18.8369 1.72574 18.4878 2.10923 18.1331C2.4273 17.8391 2.7815 17.5871 3.16323 17.3832C4.09783 16.8889 5.1123 16.6255 6.1402 16.3874C6.23272 16.366 6.39086 16.2716 6.39086 16.2073C6.41062 15.6432 6.40193 15.079 6.40193 14.5061C6.34034 14.5013 6.27849 14.5013 6.2169 14.5061C5.05458 14.7291 3.91123 15.0195 2.82718 15.5043C1.97323 15.8852 1.16672 16.3414 0.573699 17.1C-0.193277 18.0894 -0.201184 19.2987 0.610071 20.2509C0.938237 20.6351 1.32174 20.9681 1.74788 21.2387C3.34984 22.256 5.15974 22.667 7.00444 22.9526C9.16431 23.2788 11.3559 23.3374 13.5301 23.1272C15.2641 22.9685 16.9704 22.663 18.6055 22.0362C19.5259 21.6863 20.3996 21.2427 21.101 20.5286C22.2119 19.3939 22.219 17.9228 21.0939 16.8032Z" fill="black"/>
<path d="M8.72756 12.2873C9.10816 12.2872 9.48751 12.2435 9.85826 12.1572V18H11.835V11.624C12.4281 11.8028 13.0519 11.8554 13.6664 11.7784C14.2809 11.7015 14.8726 11.4966 15.4037 11.177C15.9348 10.8573 16.3936 10.4299 16.7506 9.92218C17.1077 9.41441 17.3552 8.83743 17.4772 8.22817C17.5993 7.6189 17.5933 6.99077 17.4596 6.38397C17.3259 5.77716 17.0675 5.20505 16.7008 4.70424C16.3341 4.20343 15.8673 3.78496 15.3302 3.47559C14.7931 3.16622 14.1975 2.97278 13.5816 2.90765C13.4759 2.13633 13.1069 1.42565 12.5377 0.896608C11.9685 0.367565 11.2341 0.0528638 10.4596 0.00608501C9.68516 -0.0406938 8.91848 0.183342 8.29012 0.640047C7.66175 1.09675 7.21055 1.7579 7.01333 2.51091C5.90344 2.91519 4.97108 3.69913 4.38011 4.72492C3.78914 5.75072 3.57739 6.95272 3.78207 8.11967C3.98675 9.28662 4.59477 10.3438 5.49926 11.1055C6.40375 11.8671 7.54682 12.2845 8.72756 12.2841V12.2873ZM8.095 4.26052L8.96477 4.24545C8.97947 4.24552 8.99395 4.24185 9.00685 4.23479C9.01975 4.22773 9.03066 4.2175 9.03856 4.20505C9.04646 4.19261 9.05108 4.17837 9.05201 4.16364C9.05293 4.14892 9.05012 4.13421 9.04384 4.12087C8.93147 3.88208 8.87727 3.6199 8.8857 3.35596C8.8929 3.01215 9.02576 2.68299 9.25902 2.43106C9.49227 2.17914 9.80966 2.02202 10.1508 1.9896C10.3403 1.97426 10.5309 1.99847 10.7107 2.06068C10.8904 2.12289 11.0553 2.22177 11.1951 2.35109C11.3349 2.48041 11.4465 2.63736 11.5229 2.81208C11.5992 2.9868 11.6388 3.17549 11.6389 3.36628C11.6389 3.41706 11.6302 3.62177 11.6215 3.8257C11.6073 4.13515 11.4476 5.01591 11.4476 5.01591C11.4476 5.01591 12.6004 4.81199 13.006 4.85721C13.0645 4.86356 13.1056 4.86753 13.1223 4.86753C13.5032 4.86698 13.8792 4.9548 14.2208 5.12412C14.5624 5.29345 14.8603 5.53969 15.0914 5.84365C15.3225 6.1476 15.4805 6.50103 15.5531 6.87637C15.6256 7.2517 15.6107 7.63877 15.5096 8.00738C15.4084 8.37599 15.2238 8.71616 14.97 9.00133C14.7163 9.28651 14.4003 9.50898 14.0467 9.65138C13.6931 9.79379 13.3115 9.85227 12.9317 9.82226C12.5519 9.79226 12.1841 9.67458 11.8571 9.47841L11.8421 9.46968V7.96763H9.86537V10.0783C9.55326 10.2066 9.22175 10.2809 8.88491 10.2981C8.12049 10.3356 7.37004 10.0827 6.78302 9.58994C6.19601 9.09714 5.81551 8.40054 5.71729 7.63887C5.61907 6.8772 5.81035 6.10635 6.25304 5.47984C6.69572 4.85333 7.35732 4.41714 8.10607 4.25814L8.095 4.26052Z" fill="black"/>
</svg>
