<svg width="23" height="25" viewBox="0 0 23 25" fill="none" xmlns="http://www.w3.org/2000/svg">
<path d="M8.49861 14.8949C7.79417 14.7342 7.55746 14.444 7.55664 13.7881C7.55664 12.6378 7.55664 11.4883 7.55664 10.3381C7.56317 8.63394 8.75328 7.45071 10.4764 7.43624C11.1335 7.43142 11.7906 7.42097 12.4461 7.4491C13.8672 7.5118 15.0475 8.6878 15.0769 10.0905C15.1038 11.3629 15.0908 12.6362 15.0842 13.9095C15.0842 14.4536 14.8532 14.69 14.1455 14.9142C14.1455 15.3242 14.1455 15.743 14.1455 16.1618C14.1455 17.0347 14.1561 17.9077 14.1357 18.7798C14.1264 19.1061 14.0765 19.4301 13.9872 19.7444C13.8435 20.2444 13.5194 20.4598 13.0787 20.414C12.853 20.3944 12.6415 20.2969 12.4819 20.1386C12.3222 19.9803 12.2245 19.7715 12.2061 19.5491C12.1595 19.1625 12.1245 18.7734 12.0885 18.3852C11.9963 17.4254 11.9073 16.4648 11.8159 15.5042C11.8077 15.4239 11.7971 15.3435 11.7816 15.2631C11.7326 15.0051 11.5686 14.8564 11.3066 14.8612C11.1939 14.8577 11.0844 14.8978 11.0016 14.973C10.9187 15.0481 10.869 15.1523 10.8633 15.2631C10.8021 15.7719 10.7531 16.2831 10.7001 16.7904C10.6111 17.6995 10.5287 18.6086 10.438 19.5177C10.3899 20 10.0724 20.3368 9.62179 20.406C9.21937 20.4687 8.8945 20.3441 8.75492 19.9687C8.61105 19.5971 8.52838 19.2052 8.51004 18.808C8.4782 17.6183 8.49616 16.4262 8.49534 15.2358C8.49779 15.1281 8.49861 15.0171 8.49861 14.8949Z" fill="black"/>
<path d="M16.0331 15.2454C16.5808 15.3659 17.0885 15.4672 17.5905 15.591C18.6516 15.8539 19.6924 16.1979 20.6327 16.7646C21.0458 17.0048 21.4292 17.2913 21.7755 17.6183C22.9362 18.7524 22.9297 20.2419 21.7828 21.3962C21.0588 22.1197 20.1568 22.569 19.2067 22.9235C17.5187 23.5577 15.7572 23.8648 13.9671 24.0288C11.7227 24.2421 9.46017 24.1827 7.23049 23.8519C5.32615 23.5649 3.45773 23.1462 1.80398 22.1156C1.36419 21.84 0.968347 21.5017 0.629378 21.1117C-0.208108 20.1415 -0.199945 18.9213 0.595095 17.9189C1.20403 17.1504 2.03988 16.6882 2.92144 16.3016C4.04054 15.8113 5.22412 15.5146 6.42076 15.2912C6.48432 15.2861 6.54821 15.2861 6.61177 15.2912C6.61177 15.8723 6.62075 16.4439 6.60034 17.0146C6.60034 17.0805 6.43709 17.1753 6.34158 17.1979C5.28044 17.439 4.23318 17.7051 3.26836 18.2058C2.87323 18.411 2.50646 18.6652 2.17701 18.9622C1.78112 19.3216 1.80153 19.6752 2.17701 20.0627C2.68473 20.5916 3.34508 20.8802 4.01687 21.1374C5.83224 21.8319 7.73495 22.1205 9.66541 22.2394C12.0701 22.3881 14.4577 22.2451 16.8102 21.6961C17.7758 21.4702 18.7218 21.1824 19.5854 20.6993C19.9032 20.524 20.1972 20.3098 20.4605 20.0619C20.8572 19.6849 20.8433 19.3312 20.4605 18.9365C19.956 18.4205 19.3177 18.111 18.6443 17.8843C17.868 17.6207 17.0681 17.4277 16.2812 17.1946C16.1898 17.1673 16.0486 17.0829 16.0461 17.021C16.0257 16.4471 16.0331 15.874 16.0331 15.2454Z" fill="black"/>
<path d="M11.3159 5.5673C10.7562 5.56681 10.2093 5.40271 9.74438 5.0958C9.27949 4.78888 8.91758 4.35297 8.70452 3.8433C8.49146 3.33363 8.43684 2.77314 8.54759 2.23287C8.65833 1.6926 8.92945 1.19686 9.32658 0.808487C9.72372 0.420109 10.229 0.156572 10.7784 0.0512733C11.3278 -0.0540252 11.8965 0.00365465 12.4126 0.217003C12.9287 0.430352 13.3688 0.789766 13.6772 1.2497C13.9857 1.70963 14.1485 2.24937 14.1451 2.80053C14.1447 3.16537 14.0711 3.52654 13.9285 3.86329C13.7859 4.20004 13.5772 4.50574 13.3143 4.76283C13.0514 5.01991 12.7396 5.22333 12.3966 5.36138C12.0537 5.49944 11.6864 5.56942 11.3159 5.5673Z" fill="black"/>
</svg>
