<svg xmlns="http://www.w3.org/2000/svg" width="68" height="68" viewBox="0 0 68 68">
    <g fill="none" fill-rule="evenodd">
        <g>
            <g>
                <g>
                    <g transform="translate(-836.000000, -1855.000000) translate(120.000000, 1822.000000) translate(600.000000, 0.000000) translate(117.000000, 34.000000)">
                        <circle cx="33" cy="33" r="33" stroke="#000" stroke-width="2"/>
                        <g fill="#000" fill-rule="nonzero">
                            <path d="M17.789 17.508h-5.575c-.466 0-.844.374-.844.836v10.82c0 .462.378.836.844.836h5.575c.466 0 .844-.374.844-.836v-10.82c0-.462-.378-.836-.844-.836zm-.845 10.82H13.06V19.18h3.885v9.15zM28.853 10.949h-5.616c-.467 0-.845.374-.845.835v17.38c0 .462.378.836.845.836h5.616c.467 0 .845-.374.845-.836v-17.38c0-.461-.378-.835-.845-.835zm-.844 17.38H24.08v-15.71h3.928v15.71zM6.767 21.56H1.15c-.466 0-.845.375-.845.836v6.768c0 .462.379.836.845.836h5.617c.466 0 .844-.374.844-.836v-6.768c0-.461-.378-.835-.844-.835zm-.845 6.769H1.995v-5.097h3.927v5.097zM29.782.838c-.128-.175-.33-.283-.549-.292L21.547.002c-.466-.034-.873.312-.908.773-.035.462.315.864.782.899l5.44.365-10.001 7.74-7.644-5.933c-.326-.256-.792-.238-1.098.042L.263 11.325c-.334.313-.352.833-.042 1.17.15.193.387.302.634.292.222-.003.435-.093.59-.25L8.753 5.6l7.559 5.89c.308.245.747.245 1.056 0l10.81-8.322-.422 5.19c-.002.453.346.833.803.877h.042c.435.002.8-.324.844-.752l.55-7.061c.03-.218-.049-.436-.212-.585z" transform="translate(18.000000, 18.000000)"/>
                        </g>
                    </g>
                </g>
            </g>
        </g>
    </g>
</svg>
