<svg xmlns="http://www.w3.org/2000/svg" width="28" height="28" viewBox="0 0 28 28">
    <g fill="none" fill-rule="evenodd">
        <g fill="#000" fill-rule="nonzero">
            <g>
                <path d="M23.893 4.102C21.249 1.458 17.735 0 13.997 0 10.26 0 6.745 1.458 4.101 4.102 1.457 6.747 0 10.261 0 14c0 3.74 1.457 7.253 4.101 9.898C6.745 26.542 10.26 28 13.997 28c2.172 0 4.153-.403 5.726-1.158 1.492-.72 2.574-1.751 3.053-2.898.57-1.377.247-2.811-.882-3.94l-.04-.041c.017-.023.04-.04.058-.058.806-.847.806-1.958-.012-2.777l-1.993-1.993c-.392-.403-.864-.622-1.365-.622s-.98.213-1.383.616l-1.036 1.037c-.052-.029-.098-.052-.15-.075-.127-.063-.242-.12-.34-.184-1.054-.668-2.01-1.544-2.926-2.667-.403-.507-.68-.94-.887-1.366.259-.242.5-.49.737-.732.098-.103.202-.201.305-.305.847-.847.847-1.942 0-2.788l-.985-.986c-.115-.115-.224-.224-.334-.34-.219-.224-.443-.455-.685-.68-.392-.385-.858-.587-1.354-.587-.495 0-.967.202-1.37.588l-.012.011-1.239 1.239c-.495.495-.783 1.106-.84 1.809-.087 1.095.23 2.109.477 2.771.594 1.602 1.48 3.088 2.8 4.678 1.601 1.913 3.53 3.428 5.737 4.494.847.403 1.981.876 3.26.962.08.006.162.006.242.006.893 0 1.648-.323 2.235-.962l.023-.023c.017-.023.04-.046.063-.07l.035.035c.737.738.939 1.579.582 2.437-.663 1.573-3.237 3.186-7.5 3.186C7.04 26.617 1.382 20.96 1.382 14c0-6.96 5.657-12.617 12.615-12.617S26.612 7.04 26.612 14c0 1.147-.156 2.276-.455 3.365-.104.368.115.749.484.852.368.104.748-.115.852-.484.334-1.21.507-2.466.507-3.733-.006-3.74-1.463-7.253-4.107-9.898zm-4.124 16.01c-.329.352-.697.508-1.21.508-.052 0-.104 0-.155-.006-1.037-.07-2.016-.478-2.748-.83-2.022-.98-3.796-2.368-5.27-4.13-1.216-1.464-2.028-2.818-2.57-4.27-.322-.875-.443-1.544-.397-2.177.035-.375.173-.68.444-.945L9.1 7.029c.098-.092.248-.202.409-.202.161 0 .3.104.386.196l.017.017c.22.202.426.415.645.64.116.115.23.236.346.351l.985.985c.305.306.305.53 0 .836l-.311.311c-.305.305-.588.6-.899.876-.011.005-.017.017-.029.028-.432.433-.282.882-.236 1.032l.018.046c.265.64.633 1.239 1.198 1.953l.005.006c1.014 1.25 2.08 2.218 3.26 2.967.156.098.312.178.462.253.126.064.241.121.34.185.017.011.04.023.063.034.15.075.3.11.449.11.253 0 .49-.104.691-.311l1.239-1.24c.098-.097.242-.212.403-.212.15 0 .288.11.374.201l.012.012 1.993 1.993c.282.283.282.542-.012.847l-.005.006c-.133.144-.277.282-.432.432-.23.225-.473.461-.703.732z" transform="translate(-147.000000, -321.000000) translate(147.000000, 321.000000)"/>
            </g>
        </g>
    </g>
</svg>
