<svg width="38" height="38" viewBox="0 0 38 38" fill="none" xmlns="http://www.w3.org/2000/svg">
<path d="M38 19C38 29.4916 29.4916 38 19 38C8.50842 38 0 29.4916 0 19C0 8.50842 8.50842 0 19 0C29.4916 0 38 8.50842 38 19Z" fill="white"/>
<path d="M27.4483 13.8437L19.815 10.0437C19.5615 9.91719 19.282 9.85132 18.9987 9.85132C18.7154 9.85132 18.4359 9.91719 18.1824 10.0437L10.5491 13.8437C10.2445 13.9954 9.98821 14.229 9.80908 14.5183C9.62996 14.8076 9.53509 15.1412 9.53516 15.4814V24.2643C9.53516 24.7499 9.72805 25.2156 10.0714 25.559C10.4148 25.9023 10.8805 26.0952 11.3661 26.0952H26.632C27.1175 26.0952 27.5832 25.9023 27.9266 25.559C28.27 25.2156 28.4629 24.7499 28.4629 24.2643V15.4814C28.4628 15.141 28.3678 14.8074 28.1885 14.518C28.0093 14.2286 27.753 13.9949 27.4483 13.8431V13.8437ZM26.703 17.0168L19.3026 20.7138C19.2082 20.7609 19.1042 20.7855 18.9987 20.7855C18.8932 20.7855 18.7892 20.7609 18.6948 20.7138L11.2951 17.0168C11.1413 16.932 11.0263 16.791 10.9741 16.6233C10.922 16.4556 10.9367 16.2743 11.0153 16.1172C11.0938 15.9602 11.23 15.8396 11.3955 15.7807C11.5609 15.7218 11.7427 15.7292 11.9028 15.8013L19 19.3461L26.0946 15.8013C26.2549 15.728 26.4373 15.7197 26.6036 15.7783C26.7698 15.8368 26.9068 15.9577 26.9857 16.1153C27.0646 16.2729 27.0792 16.455 27.0265 16.6232C26.9737 16.7913 26.8577 16.9325 26.703 17.0168Z" fill="black"/>
</svg>
