<svg xmlns="http://www.w3.org/2000/svg" width="208" height="64" viewBox="0 0 208 64">
    <g fill="none" fill-rule="evenodd">
        <g fill-rule="nonzero">
            <g>
                <g>
                    <path fill="#000" d="M15.592 43.831c1.426.586 2.719 1.452 3.803 2.548l-3.043 3.618c-.658-.817-1.475-1.49-2.403-1.98-.859-.47-1.82-.722-2.8-.733-2.09-.032-4.024 1.107-5.01 2.951-.508.94-.766 1.993-.75 3.06-.016 1.08.241 2.148.75 3.101.48.903 1.193 1.66 2.066 2.192.886.533 1.904.81 2.94.796.936-.015 1.859-.236 2.701-.646.938-.432 1.788-1.035 2.506-1.778l3.1 3.25c-1.143 1.158-2.492 2.09-3.979 2.75-1.43.668-2.988 1.02-4.566 1.034-1.94.026-3.853-.451-5.554-1.385-1.627-.896-2.977-2.22-3.906-3.83-.961-1.646-1.46-3.52-1.446-5.427-.025-1.878.476-3.726 1.446-5.334.967-1.584 2.34-2.88 3.978-3.753 3.148-1.681 6.888-1.84 10.167-.434zM34.96 49.904c1.378 1.51 2.067 3.606 2.067 6.29v.967H25.832c.202.858.677 1.627 1.353 2.192.686.526 1.533.798 2.397.77.7.001 1.392-.14 2.036-.414.664-.287 1.268-.7 1.777-1.214l2.681 2.641c-.838.904-1.867 1.61-3.012 2.068-1.251.493-2.586.739-3.931.723-1.552.03-3.087-.326-4.469-1.034-1.237-.635-2.261-1.62-2.945-2.832-1.395-2.679-1.395-5.87 0-8.55.678-1.222 1.696-2.222 2.93-2.878 1.332-.706 2.821-1.062 4.329-1.034 2.593.052 4.603.801 5.982 2.305zm-3.694 2.176c-.586-.596-1.396-.917-2.231-.883-.81-.014-1.593.299-2.17.868-.624.642-1.023 1.469-1.137 2.357h6.38c.04-.861-.263-1.703-.842-2.342zM54.442 49.258c1.098 1.217 1.67 2.819 1.59 4.456v10.048H50.94V55.13c.043-.805-.225-1.595-.75-2.207-.536-.56-1.291-.857-2.066-.812-.832-.028-1.64.292-2.226.884-.608.631-.974 1.457-1.033 2.331v8.436H39.78v-15.94h5.115v2.584c1.119-1.861 2.887-2.805 5.305-2.833 1.589-.064 3.13.548 4.242 1.685zM67.967 63.7c-.745.193-1.51.292-2.279.294-1.396.064-2.764-.406-3.828-1.313-1.007-.975-1.538-2.342-1.451-3.742v-7.034h-2.227v-3.35h2.227v-4.43h5.078v4.404h4.169v3.376h-4.17v6.238c0 1.168.471 1.747 1.416 1.747.707-.034 1.399-.21 2.036-.517l1.007 3.551c-.623.343-1.288.604-1.978.776zM85.382 49.904c1.377 1.51 2.066 3.606 2.066 6.29 0 .435 0 .76-.03.967h-11.18c.207.857.683 1.625 1.358 2.192.686.527 1.533.8 2.397.77.698.002 1.39-.139 2.03-.414.666-.285 1.27-.698 1.778-1.214l2.686 2.641c-.84.904-1.87 1.61-3.017 2.068-1.25.494-2.583.74-3.926.723-1.554.029-3.09-.326-4.474-1.034-1.237-.635-2.261-1.62-2.945-2.832-1.394-2.679-1.394-5.87 0-8.55.68-1.22 1.697-2.22 2.93-2.878 1.332-.706 2.822-1.061 4.329-1.034 2.61.035 4.61.803 5.998 2.305zm-3.694 2.176c-.586-.596-1.397-.917-2.232-.883-.815-.017-1.603.296-2.185.868-.625.64-1.022 1.469-1.132 2.357h6.391c.042-.862-.26-1.705-.842-2.342zM104.874 49.258c1.103 1.214 1.677 2.817 1.596 4.456v10.048h-5.094V55.13c.04-.804-.228-1.594-.75-2.207-.536-.56-1.291-.857-2.066-.812-.832-.028-1.64.292-2.226.884-.608.631-.974 1.457-1.033 2.331v8.436h-5.125v-15.94H95.3v2.584c1.122-1.861 2.891-2.805 5.305-2.833 1.598-.074 3.151.54 4.268 1.685zM122.33 49.103c1.232 1.055 1.913 2.617 1.85 4.239v10.41h-4.996v-1.835c-.516.689-1.209 1.224-2.005 1.55-.913.364-1.89.54-2.872.517-1.459.075-2.89-.422-3.988-1.385-.994-.935-1.534-2.255-1.483-3.618-.07-1.364.518-2.679 1.58-3.536 1.055-.837 2.568-1.266 4.542-1.287h4.2v-.232c.037-.703-.25-1.383-.78-1.846-.671-.491-1.495-.728-2.325-.666-.766.013-1.527.128-2.263.34-.864.24-1.7.57-2.495.988l-1.446-3.365c1.19-.567 2.432-1.02 3.709-1.354 1.204-.304 2.441-.455 3.683-.45 2.18.01 3.877.52 5.089 1.53zm-4.319 10.855c.577-.36.989-.932 1.147-1.592v-1.412h-3.219c-.605-.043-1.208.1-1.73.409-.403.309-.62.802-.579 1.308-.027.528.193 1.04.594 1.385.472.367 1.062.55 1.659.517.754.011 1.496-.203 2.128-.615zM135.064 48.37c.926-.515 1.969-.784 3.028-.781v4.615h-.708c-1.106-.05-2.198.272-3.1.915-.79.598-1.288 1.504-1.369 2.492v8.187h-5.124V47.82h5.124v2.688c.515-.89 1.257-1.63 2.15-2.14zM144.927 41.304c1.072 1.07 1.075 2.808.005 3.881-1.07 1.074-2.807 1.076-3.88.005-1.006-1.1-1.006-2.786 0-3.886 1.093-1.013 2.781-1.013 3.875 0zm-4.51 22.458v-15.94h5.093v15.94h-5.093zM161.443 48.653c1.277.628 2.34 1.619 3.058 2.848 1.433 2.67 1.433 5.88 0 8.55-.72 1.232-1.782 2.229-3.058 2.868-2.886 1.358-6.227 1.358-9.113 0-1.273-.646-2.335-1.641-3.064-2.868-1.46-2.663-1.46-5.887 0-8.55.726-1.224 1.79-2.213 3.064-2.848 2.89-1.338 6.222-1.338 9.113 0zm-7.135 4.192c-1.315 1.78-1.315 4.21 0 5.99.657.729 1.59 1.144 2.57 1.144.98 0 1.914-.415 2.57-1.143 1.316-1.78 1.316-4.21 0-5.99-.65-.738-1.586-1.16-2.57-1.16-.983 0-1.919.422-2.57 1.16zM30.776 16.478c.927-.516 1.971-.784 3.032-.78v4.605c-.155 0-.393-.026-.708-.026-1.106-.051-2.198.271-3.1.915-.791.596-1.29 1.503-1.368 2.491v8.188h-5.115V15.93h5.125v2.677c.513-.885 1.248-1.62 2.134-2.13zM51.662 31.87h-5.125v-2.625c-1.091 1.892-2.813 2.834-5.166 2.827-1.55.067-3.056-.535-4.133-1.654-1.076-1.22-1.633-2.814-1.55-4.44V15.93h5.11v8.606c-.045.807.213 1.601.723 2.228.49.547 1.199.846 1.932.816.884.018 1.726-.38 2.273-1.075.578-.788.864-1.753.811-2.729V15.93h5.125v15.94zM19.89 20.117h-8.183v3.944h3.642v2.64c-.617.298-1.258.542-1.916.73-.57.17-1.162.26-1.757.268-1.087.017-2.159-.264-3.1-.811-.917-.525-1.673-1.292-2.185-2.218-1.05-1.954-1.05-4.305 0-6.259.508-.914 1.252-1.674 2.155-2.202.93-.546 1.99-.828 3.068-.816 1.01.015 2.007.23 2.935.63.952.39 1.826.946 2.583 1.644l2.944-3.582c-1.133-.985-2.442-1.746-3.859-2.243-1.466-.545-3.018-.827-4.582-.833-2.029-.03-4.033.444-5.833 1.38-1.678.872-3.09 2.179-4.091 3.784-.987 1.606-1.498 3.46-1.472 5.345-.05 3.844 2.051 7.395 5.445 9.2 1.727.933 3.663 1.41 5.626 1.385 1.543-.017 3.075-.271 4.54-.755 1.447-.432 2.818-1.084 4.066-1.933l-.025-9.298zM69.134 16.773c1.14.683 2.056 1.686 2.635 2.884.643 1.346.962 2.824.93 4.316.038 1.46-.266 2.907-.889 4.228-.567 1.177-1.464 2.163-2.583 2.837-1.166.699-2.505 1.057-3.864 1.034-.96.012-1.909-.191-2.78-.594-.828-.39-1.55-.975-2.102-1.706v7.857h-5.11V15.93h5.074v2.109c.547-.717 1.255-1.296 2.066-1.69.841-.403 1.765-.605 2.697-.59 1.377-.03 2.735.321 3.926 1.014zM66.551 26.83c.681-.849 1.032-1.916.987-3.003.046-1.083-.305-2.146-.987-2.988-.638-.761-1.59-1.188-2.583-1.157-.962-.009-1.876.416-2.49 1.157-.7.835-1.069 1.899-1.033 2.988-.05 1.091.297 2.164.976 3.019.625.757 1.565 1.183 2.547 1.152.999.036 1.958-.396 2.593-1.168h-.01zM87.665 16.762c1.277.628 2.341 1.619 3.058 2.848.736 1.303 1.107 2.78 1.075 4.275.032 1.495-.339 2.972-1.075 4.274-.722 1.227-1.784 2.218-3.058 2.854-2.886 1.357-6.227 1.357-9.113 0-1.27-.647-2.331-1.642-3.058-2.87-.749-1.292-1.13-2.765-1.1-4.258-.032-1.499.349-2.978 1.1-4.275.723-1.224 1.785-2.214 3.058-2.848 2.89-1.338 6.223-1.338 9.113 0zm-7.13 4.192c-.68.843-1.027 1.906-.976 2.988-.053 1.088.299 2.158.987 3.003.656.727 1.589 1.143 2.568 1.143.979 0 1.912-.416 2.567-1.143.69-.844 1.044-1.914.992-3.003.047-1.084-.306-2.147-.992-2.988-.65-.737-1.585-1.159-2.567-1.159-.983 0-1.918.422-2.568 1.16h-.01z" transform="translate(-120.000000, -3803.000000) translate(0.000000, 3714.000000) translate(120.000000, 89.000000)"/>
                    <path fill="#D42E12" d="M176.115 0L176.115 15.951 192.057 15.951 192.057 31.896 208 31.896 208 0z" transform="translate(-120.000000, -3803.000000) translate(0.000000, 3714.000000) translate(120.000000, 89.000000)"/>
                    <path fill="#D42E12" d="M176.115 31.896L176.115 15.951 165.488 15.951 165.488 42.529 192.057 42.529 192.057 31.896z" transform="translate(-120.000000, -3803.000000) translate(0.000000, 3714.000000) translate(120.000000, 89.000000)"/>
                </g>
            </g>
        </g>
    </g>
</svg>
