<svg xmlns="http://www.w3.org/2000/svg" width="68" height="68" viewBox="0 0 68 68">
    <g fill="none" fill-rule="evenodd">
        <g>
            <g>
                <g>
                    <g>
                        <g transform="translate(-986.000000, -2475.000000) translate(0.000000, 2022.000000) translate(270.000000, 182.000000) translate(600.000000, 220.000000) translate(117.000000, 52.000000)">
                            <circle cx="33" cy="33" r="33" stroke="#EEE" stroke-width="2"/>
                            <path fill="#FFF" fill-rule="nonzero" d="M27.454 33.704c2.621 0 4.453-2.112 4.453-5.352S30.075 23 27.454 23C24.804 23 23 25.14 23 28.352c0 3.211 1.804 5.352 4.454 5.352zm.14 9.155l13.474-19.718h-1.663L25.932 42.859h1.663zm-.14-10.422c-1.86 0-3.045-1.55-3.045-4.085s1.184-4.084 3.045-4.084c1.832 0 3.044 1.52 3.044 4.084 0 2.563-1.212 4.085-3.044 4.085zM39.546 43C42.196 43 44 40.86 44 37.648c0-3.211-1.804-5.352-4.454-5.352-2.621 0-4.453 2.14-4.453 5.352 0 3.211 1.832 5.352 4.453 5.352zm0-1.268c-1.832 0-3.044-1.52-3.044-4.084 0-2.563 1.212-4.085 3.044-4.085 1.86 0 3.045 1.55 3.045 4.085s-1.184 4.084-3.045 4.084z"/>
                        </g>
                    </g>
                </g>
            </g>
        </g>
    </g>
</svg>
