<svg xmlns="http://www.w3.org/2000/svg" width="68" height="68" viewBox="0 0 68 68">
    <defs>
        <filter id="hsh9f2jcoa" color-interpolation-filters="auto">
            <feColorMatrix in="SourceGraphic" values="0 0 0 0 0.000000 0 0 0 0 0.000000 0 0 0 0 0.000000 0 0 0 1.000000 0"/>
        </filter>
    </defs>
    <g fill="none" fill-rule="evenodd">
        <g>
            <g>
                <g>
                    <g>
                        <g transform="translate(-686.000000, -2237.000000) translate(0.000000, 2022.000000) translate(270.000000, 182.000000) translate(300.000000, 0.000000) translate(117.000000, 34.000000)">
                            <circle cx="33" cy="33" r="33" stroke="#000" stroke-width="2"/>
                            <g filter="url(#hsh9f2jcoa)">
                                <g fill="#000" fill-rule="nonzero">
                                    <path d="M14.547 9.754h2.748c.33 0 .597-.263.597-.586V6.464c0-.324-.268-.586-.597-.586h-2.748c-.33 0-.596.262-.596.586v2.704c0 .323.267.586.596.586zm.597-2.704h1.555v1.532h-1.555V7.05zM9.136 9.754h2.747c.33 0 .597-.263.597-.586V6.464c0-.324-.267-.586-.597-.586H9.136c-.33 0-.597.262-.597.586v2.704c0 .323.267.586.597.586zm.596-2.704h1.555v1.532H9.732V7.05zM14.547 15.706h2.748c.33 0 .597-.263.597-.586v-2.704c0-.324-.268-.586-.597-.586h-2.748c-.33 0-.596.262-.596.586v2.704c0 .323.267.586.596.586zm.597-2.704h1.555v1.532h-1.555v-1.532zM9.136 15.706h2.747c.33 0 .597-.263.597-.586v-2.704c0-.324-.267-.586-.597-.586H9.136c-.33 0-.597.262-.597.586v2.704c0 .323.267.586.597.586zm.596-2.704h1.555v1.532H9.732v-1.532zM14.547 21.657h2.748c.33 0 .597-.262.597-.585v-2.704c0-.324-.268-.586-.597-.586h-2.748c-.33 0-.596.262-.596.586v2.704c0 .323.267.585.596.585zm.597-2.703h1.555v1.532h-1.555v-1.532zM11.883 21.657c.33 0 .597-.262.597-.585v-2.704c0-.324-.267-.586-.597-.586H9.136c-.33 0-.597.262-.597.586v2.704c0 .323.267.585.597.585h2.747zm-2.15-2.703h1.554v1.532H9.732v-1.532z" transform="translate(20.000000, 18.000000)"/>
                                    <path d="M25.404 28.828h-.555V11.13c0-.324-.267-.586-.597-.586h-3.886V3.279c0-.324-.267-.586-.596-.586H18.5V.586c0-.324-.268-.586-.597-.586H8.528c-.33 0-.596.262-.596.586v2.107H6.66c-.33 0-.597.262-.597.586v11.277H2.792c-.33 0-.597.262-.597.586v13.686H.596c-.329 0-.596.262-.596.586 0 .324.267.586.596.586h24.808c.329 0 .596-.262.596-.586 0-.324-.267-.586-.596-.586zM9.124 1.172h8.182v1.52H9.125v-1.52zM3.389 15.728h2.676v13.1H3.388v-13.1zm3.87-11.863h11.915v24.963h-2.969v-3.866c0-.323-.267-.586-.596-.586h-4.785c-.33 0-.597.263-.597.586v3.866H7.257V3.865zm4.161 24.963v-3.28h3.592v3.28H11.42zm8.947 0V11.716h3.29v17.112h-3.29z" transform="translate(20.000000, 18.000000)"/>
                                </g>
                            </g>
                        </g>
                    </g>
                </g>
            </g>
        </g>
    </g>
</svg>
